# xmcd
#
# Track frame offsets:
#	150
#	18022
#	43302
#	55522
#	85587
#	103965
#	114912
#	136432
#	147020
#	166000
#	186500
#	204242
#	209210
#
# Disc length: 3040 seconds
#
# Revision: 0
# Processed by: cddbd v1.5.1PL0 Copyright (c) Steve Scherf et al.
# Submitted via: dBpowerAMP V4.0
#
DISCID=b10bde0d
DTITLE=Tyrone Wells - Close: Live at McClain's
DYEAR=1900
DGENRE=Folk-Rock
TTITLE0=Need
TTITLE1=Baby Don't You Change
TTITLE2=Happy As The Sun
TTITLE3=Jealous Man
TTITLE4=Fly
TTITLE5=Tyrone Yodels
TTITLE6=Better Off Without You
TTITLE7=Ain't No Sunshine
TTITLE8=Hate Song
TTITLE9=No Good Without You
TTITLE10=Sea Breeze
TTITLE11=Tyrone Talks
TTITLE12=When All Is Said And Done
EXTD=This guy somewhat defies any categorization. His roots are R&B, blues, and folk mixed and toyed with to create a blend that is truely unique. His CDs are available at CDBaby.com as well as more info about him.
EXTT0=
EXTT1=
EXTT2=
EXTT3=
EXTT4=
EXTT5=
EXTT6=
EXTT7=
EXTT8=
EXTT9=
EXTT10=
EXTT11=
EXTT12=
PLAYORDER=
